<svg version="1.1" xmlns="http://www.w3.org/2000/svg" style="display: block;" viewBox="345 286 1843 1843" width="2048" height="2048" preserveAspectRatio="xMidYMid slice">
<defs>
  <clipPath id="circleClip">
    <circle cx="1024" cy="1024" r="1024"/>
  </clipPath>
</defs>
<style>
  /* Eye blinking animation */
  .eye-group {
    transform-origin: 1160px 1010px;
    animation: blink 3.5s ease-in-out infinite;
  }

  @keyframes blink {
    0%, 90%, 100% { transform: scaleY(1); }
    93%, 97% { transform: scaleY(0.1); }
  }

  /* Pupil movement animation */
  .pupil {
    animation: look-around 5s ease-in-out infinite;
  }

  @keyframes look-around {
    0%, 100% { transform: translate(0, 0); }
    15% { transform: translate(8px, -5px); }
    30% { transform: translate(-5px, 3px); }
    50% { transform: translate(5px, 6px); }
    70% { transform: translate(-8px, -3px); }
    85% { transform: translate(3px, -4px); }
  }

  /* Head/body subtle movement animation */
  .zebra-body {
    transform-origin: 1024px 1200px;
    animation: head-move 6s ease-in-out infinite;
  }

  @keyframes head-move {
    0%, 100% { transform: rotate(0deg) translateY(0); }
    25% { transform: rotate(0.8deg) translateY(-3px); }
    50% { transform: rotate(-0.5deg) translateY(2px); }
    75% { transform: rotate(0.3deg) translateY(-2px); }
  }

  /* Subtle breathing animation */
  .zebra-body {
    animation: head-move 6s ease-in-out infinite, breathe 4s ease-in-out infinite;
  }

  @keyframes breathe {
    0%, 100% { transform: scale(1); }
    50% { transform: scale(1.003); }
  }
</style>

<!-- Clipped and scaled container -->
<g clip-path="url(#circleClip)">
<!-- Scaled zebra (20% bigger, centered) -->
<g transform="translate(1024, 1024) rotate(-7) scale(1.26) translate(-1024, -1024)">
<!-- Zebra body with head movement -->
<g class="zebra-body">
<path transform="translate(0,0)" fill="rgb(5,10,11)" d="M 791.873 699.673 C 791.983 645.287 815.1 527.811 894.896 562.756 C 939.729 582.389 978.783 635.01 996.75 680.058 C 1002.83 664.01 1010.05 648.353 1019.12 633.038 C 1033.99 607.904 1059.6 567.712 1089.06 558.949 C 1096.82 556.643 1107.94 558.693 1114.19 563.51 C 1131.42 576.778 1135.09 598.871 1138.5 618.446 C 1143.46 646.936 1140.18 676.848 1133.4 704.694 C 1132.37 708.905 1130.19 718.065 1127.97 721.449 L 1126.44 720.245 L 1125.29 723.163 L 1124.51 725.917 C 1126.98 728.01 1166.95 746.127 1173.6 749.657 C 1207.42 767.372 1239.46 788.283 1269.29 812.104 C 1336.65 866.129 1382.6 935.982 1441.91 997.827 C 1465.61 1022.53 1491.04 1044.16 1516.09 1067.47 C 1563.47 1111.56 1612.54 1158.45 1650.77 1210.71 C 1670.5 1237.67 1681.24 1264.12 1683.83 1297.31 C 1688.35 1355.5 1672.34 1406.73 1634.04 1450.87 C 1601.74 1488.12 1558.71 1512.24 1509.4 1515.96 C 1454.41 1520.11 1414.97 1505.34 1370.5 1473.62 C 1347.91 1457.51 1328.55 1444.51 1301 1438.49 C 1276.46 1433.13 1253.92 1435.7 1229.15 1437.04 C 1182.76 1439.55 1120.26 1438.72 1077.47 1420.37 L 1079.26 1454.84 C 1086.24 1560.28 1105.3 1665.53 1130.54 1767.97 C 1134.27 1783.14 1145.4 1830.52 1151.04 1841.96 C 1123.85 1848.96 1049.28 1851.23 1020.19 1849.89 C 1012.52 1849 994.72 1849.52 985 1848.99 C 956.754 1847.53 928.586 1844.84 900.576 1840.92 C 733.315 1817.86 577.256 1743.72 453.725 1628.62 C 440.135 1615.88 403.064 1580.15 392.479 1565.92 C 377.784 1548.4 363.653 1530.41 350.108 1511.98 C 343.341 1502.69 336.683 1491.81 329.78 1482.97 C 327.687 1480.37 326.983 1478.89 325.425 1476.01 C 328.679 1473.77 335.898 1441.28 337.521 1435 C 354.217 1367.76 374.48 1301.45 398.223 1236.36 C 463.453 1060.39 572.655 878.165 716.75 756.567 C 736.718 739.716 769.942 712.945 791.873 699.673 z"/>
<path transform="translate(0,0)" fill="rgb(75,217,63)" d="M 410.174 1512.85 C 422.789 1475.96 436.338 1439.39 450.809 1403.19 C 457.463 1386.6 466.256 1367.78 472.022 1351.34 C 478.391 1359.44 488.12 1368.48 495.327 1377.09 C 503.042 1384.78 542.093 1426.95 545.488 1433.88 C 554.54 1442.84 562.526 1453.45 570.736 1463.12 C 639.729 1544.35 702.593 1631.58 783.006 1702.27 C 788.148 1706.79 797.67 1714.3 801.616 1719.21 L 805.178 1722.21 C 830.535 1742.25 851.544 1760.97 879.368 1778.23 C 884.683 1781.45 893.11 1786.53 897.988 1790.21 C 903.919 1792.74 917.408 1801.18 923.956 1804.97 C 936.21 1811.93 948.639 1818.59 961.231 1824.92 C 981.28 1835.05 1000.42 1840.68 1020.19 1849.89 C 1012.52 1849 994.72 1849.52 985 1848.99 C 956.754 1847.53 928.586 1844.84 900.576 1840.92 C 733.315 1817.86 577.256 1743.72 453.725 1628.62 C 440.135 1615.88 403.064 1580.15 392.479 1565.92 C 395.902 1557.9 401.909 1536.8 405.283 1526.95 L 410.174 1512.85 z"/>
<path transform="translate(0,0)" fill="rgb(76,230,71)" d="M 405.283 1526.95 C 414.056 1545.47 394.224 1550.22 396.673 1563.02 C 397.746 1568.63 427.793 1593.87 433.485 1599.83 C 441.627 1608.35 447.925 1616.77 456.181 1625.01 C 534.374 1698.09 631.366 1756.71 731.45 1794.44 C 754.486 1803.13 822.852 1823.95 846.157 1826.05 C 847.491 1825.38 848.83 1824.24 850.158 1824.71 C 871.673 1832.33 893.568 1833.88 915.658 1838.53 L 916.462 1839.24 L 914.535 1840.68 C 944.576 1838.87 976.473 1848.97 999.087 1846.95 L 999.53 1846.03 C 996.374 1845.26 993.191 1843.33 989.704 1842.06 C 965.367 1833.16 941.109 1820.24 918.884 1806.87 C 911.109 1802.19 904.549 1795.92 896.07 1790.85 L 897.988 1790.21 C 903.919 1792.74 917.408 1801.18 923.956 1804.97 C 936.21 1811.93 948.639 1818.59 961.231 1824.92 C 981.28 1835.05 1000.42 1840.68 1020.19 1849.89 C 1012.52 1849 994.72 1849.52 985 1848.99 C 956.754 1847.53 928.586 1844.84 900.576 1840.92 C 733.315 1817.86 577.256 1743.72 453.725 1628.62 C 440.135 1615.88 403.064 1580.15 392.479 1565.92 C 395.902 1557.9 401.909 1536.8 405.283 1526.95 z"/>
<path transform="translate(0,0)" fill="rgb(76,230,71)" d="M 801.616 1719.21 L 800.151 1720.16 C 795.099 1715.78 790.329 1713.47 785.083 1709.58 C 769.715 1699.3 758.645 1682.08 745.534 1670.57 C 720.189 1648.33 698.04 1624.86 676.456 1599.01 C 670.638 1592.04 667.746 1584.58 662.006 1577.74 C 655.373 1569.83 648.824 1561.73 642.232 1553.78 C 635.006 1545.95 632.278 1544.22 625.666 1535.1 L 626.298 1535.41 C 622.618 1529.62 601.686 1501.72 597.249 1499.78 C 583.884 1493.96 573.562 1465.43 567.74 1463.42 L 568.459 1466.46 C 565.608 1465.53 553.666 1450.21 550.845 1446.82 L 551.987 1446.59 L 556.033 1450.52 L 556.851 1449.58 C 553.534 1445.7 544.749 1438.5 545.488 1433.88 C 554.54 1442.84 562.526 1453.45 570.736 1463.12 C 639.729 1544.35 702.593 1631.58 783.006 1702.27 C 788.148 1706.79 797.67 1714.3 801.616 1719.21 z"/>
<path transform="translate(0,0)" fill="rgb(76,230,71)" d="M 410.174 1512.85 C 422.789 1475.96 436.338 1439.39 450.809 1403.19 C 457.463 1386.6 466.256 1367.78 472.022 1351.34 C 478.391 1359.44 488.12 1368.48 495.327 1377.09 L 493.725 1378.18 L 492.434 1376.7 C 489.404 1373.24 477.941 1361.35 474.598 1358.71 C 471.85 1361.4 465.854 1377.37 463.89 1382.16 C 452.718 1408.87 442.16 1435.83 432.224 1463.02 C 427.089 1477.29 417.389 1508.48 411.032 1520.63 C 410.087 1517.22 410.201 1516.29 410.174 1512.85 z"/>
<path transform="translate(0,0)" fill="rgb(76,230,71)" d="M 879.368 1778.23 C 869.541 1779.56 866.636 1776.38 858.885 1770.31 C 845.36 1759.73 830.774 1751.5 820.444 1737.7 C 818.012 1734.45 802.531 1733.15 805.178 1722.21 C 830.535 1742.25 851.544 1760.97 879.368 1778.23 z"/>
<path transform="translate(0,0)" fill="rgb(76,230,71)" d="M 861.932 699.381 C 864.806 695.352 863.412 696.069 867.405 694.832 C 880.825 697.256 903.9 721.741 911.358 733.248 C 936.227 771.613 962.072 844.736 971.674 889.19 C 972.646 891.232 974.778 899.829 975.5 902.497 C 978.474 891.499 981.17 879.419 983.86 868.277 C 979.342 850.002 991.211 832.013 994.62 813.908 C 995.797 807.652 996.048 796.833 996.502 790.022 L 997.941 791.747 C 1001.8 786.779 995.568 774.273 1000.02 768.745 C 1005.57 766.117 1021.88 768.517 1029.35 768.834 L 1029.81 769.973 L 1028.55 770.868 C 1025.09 770.737 1024.74 770.644 1021.21 771.292 C 1024.24 771.802 1027.25 772.382 1030.25 773.03 C 1045.75 774.379 1061.78 779.915 1075.11 787.874 C 1073.15 799.506 1071.22 808.427 1068.42 819.88 C 1064.05 839.463 1042.23 903.322 1042.44 916.856 C 1064.52 895.811 1101.07 885.397 1130.74 881.741 C 1125.58 862.275 1123.38 842.14 1124.23 822.018 C 1124.65 811.974 1126.2 797.981 1125.27 788.392 C 1138.37 797.235 1153.41 806.322 1166.89 814.884 C 1196.49 830.71 1269.55 889.625 1289.8 916.779 C 1300.58 927.531 1310.71 940.396 1320.93 951.75 L 1387.82 1024.68 C 1436.19 1076.14 1487.5 1124.74 1541.5 1170.26 C 1499.05 1180.46 1460.78 1221.53 1433.68 1254.85 C 1425.96 1264.33 1420.31 1275.11 1413.66 1284.09 C 1412.39 1287.04 1404.53 1303.05 1402.71 1305.75 C 1389 1339.72 1379.83 1371.66 1383.89 1408.51 C 1376.51 1402.94 1371.93 1400.04 1363.92 1395.34 C 1362.37 1394.92 1352.89 1390.33 1350.42 1389.22 C 1337.4 1383.39 1326.58 1379.09 1312.52 1376.6 C 1295.01 1373.5 1277.96 1373.02 1260.51 1371.94 C 1245.44 1371 1218.15 1372.83 1205.27 1367.95 L 1204.08 1368.25 C 1201.67 1365.07 1200.12 1362.67 1198 1359.28 L 1197.88 1359.48 C 1182.68 1329.82 1174.87 1269.08 1203.12 1244.61 C 1243.41 1209.72 1325.02 1212.5 1376.24 1211.52 C 1380.3 1211.44 1400.16 1213.03 1402.08 1214.2 L 1402.01 1215 L 1398.53 1215.27 L 1398.54 1216.09 C 1403.25 1215.89 1406.03 1215.39 1410.46 1217.06 L 1411.35 1219.29 L 1418.21 1221.12 L 1419.44 1219.49 C 1414.37 1210.06 1381.72 1199.23 1371.24 1196.1 C 1328.9 1183.46 1210.04 1161.13 1171.66 1181.69 C 1157.33 1189.37 1145.45 1202.88 1137.2 1216.69 C 1134.82 1220.67 1133.1 1225.49 1130.56 1229.24 C 1121.93 1259.75 1123.14 1281.56 1127.89 1312.9 C 1132.77 1330.64 1136.92 1351.67 1146.33 1367.59 C 1130.19 1363.85 1118.77 1363.28 1103.41 1355.94 C 1075.88 1342.79 1059.94 1326.73 1049.78 1297.96 C 1034.46 1254.59 1029.62 1200.8 1049.18 1158.27 C 1055.04 1145.5 1070.35 1126.53 1080.79 1117.28 C 1082.09 1115.86 1082.04 1115.71 1083.03 1114.03 C 1081.89 1111.34 1075.53 1106.8 1072.94 1104.74 C 1057.94 1092.84 1042.78 1078.87 1035.43 1060.58 C 1031.86 1053.98 1029.4 1047.81 1028.1 1040.37 C 1027.22 1037.41 1027.36 1035.7 1025.39 1034.35 C 1010.69 1044.17 986.157 1095.39 978.67 1112.68 C 975.995 1120.42 972.791 1129.06 970.639 1136.88 C 967.774 1147.79 965.697 1159.18 962.949 1169.49 C 955.338 1236.84 948.284 1295.48 991.34 1354.83 C 990.899 1383.23 990.257 1441.46 996.642 1468.49 C 992.485 1466.69 989.89 1465.59 986.01 1463.32 C 985.756 1463.23 985.502 1463.14 985.248 1463.05 C 871.017 1399.48 798.689 1283.08 759.164 1161.46 C 749.874 1132.87 737.941 1104.18 727.944 1075.78 C 714.966 1038.91 696.381 1003.93 681.69 967.935 C 679.963 965.08 677.818 962.584 678.166 959.5 C 696.233 931.601 730.68 900.358 752.889 875.162 C 756.074 886.162 762.563 899.628 766.718 910.91 C 774.041 931.145 780.341 951.736 785.594 972.604 C 793.301 1002.53 800.431 1032.61 806.979 1062.82 C 822.86 1137.46 828.257 1178.47 862.625 1247.85 C 868.872 1255.14 883.845 1282.81 892.817 1294.86 C 899.076 1303.15 905.84 1311.04 913.071 1318.49 C 914.555 1320.04 923.535 1328.93 924.461 1330.16 C 927.424 1332.33 928.38 1333.63 931.739 1334.34 C 931.36 1330.6 917.683 1303.74 915.323 1297.22 C 905.714 1270.67 894.424 1234.81 891.356 1206.95 C 880.99 1155.19 892.066 1053.1 904.011 1000.82 C 909.149 978.326 919.386 952.599 920.941 929.7 C 916.393 913.526 886.039 890.628 874.611 876.231 C 864.646 863.678 861.411 860.456 854.866 845.119 L 851.808 844.65 L 850.833 846.336 L 850.404 846.31 C 849.039 843.564 848.682 842.312 847.686 839.419 C 833.379 797.851 835.596 739.016 856.75 699.749 L 857.371 701.767 C 859.319 700.418 859.722 700.307 861.932 699.381 z"/>
<path transform="translate(0,0)" fill="rgb(76,230,71)" d="M 1289.8 916.779 C 1300.58 927.531 1310.71 940.396 1320.93 951.75 L 1387.82 1024.68 C 1436.19 1076.14 1487.5 1124.74 1541.5 1170.26 C 1499.05 1180.46 1460.78 1221.53 1433.68 1254.85 C 1425.96 1264.33 1420.31 1275.11 1413.66 1284.09 C 1412.44 1280.94 1412.77 1279.2 1414.74 1276.5 C 1422.19 1266.26 1430.42 1252.5 1438.65 1243.27 C 1461.16 1218.05 1500.23 1178.43 1532.74 1168.97 L 1534 1168.62 L 1533.79 1167.17 C 1524.36 1155.34 1500.87 1143.41 1488.65 1133.09 C 1485.27 1130.25 1485.53 1131.4 1482.44 1127.41 C 1465.37 1105.33 1440.64 1091.71 1423.7 1068.56 C 1417.2 1059.83 1400.69 1050.3 1393.67 1041.33 C 1390.32 1037.04 1388.39 1032.07 1384.69 1027.56 C 1382.92 1028.66 1383.83 1028.16 1381.96 1029.05 L 1376.91 1023.08 C 1377.56 1021.86 1377.09 1022.44 1378.37 1021.39 C 1372.42 1016 1358.6 1001.51 1352.56 994.574 C 1352.53 994.057 1352.57 989.456 1352.53 989.412 C 1341.17 976.684 1319.18 959.426 1311.04 945.492 C 1304.01 933.462 1296.39 927.55 1288.92 918.474 L 1289.8 916.779 z"/>
<path transform="translate(0,0)" fill="rgb(76,230,71)" d="M 861.932 699.381 C 864.806 695.352 863.412 696.069 867.405 694.832 C 880.825 697.256 903.9 721.741 911.358 733.248 C 936.227 771.613 962.072 844.736 971.674 889.19 L 970.962 890.596 L 969.518 890.436 C 965.933 881.642 963.252 866.971 959.962 857.114 C 951.846 831.934 943.68 807.712 933.187 783.342 C 926.899 768.74 920.472 752.935 912.1 739.332 C 907.975 732.63 873.839 694.884 865.298 704.65 C 854.007 717.559 849.264 749.124 846.672 766.44 L 846.622 765.97 C 844.78 775.646 844.836 779.082 844.969 789.066 L 843.325 789.753 C 844.464 808.67 848.352 827.321 854.866 845.119 L 851.808 844.65 L 850.833 846.336 L 850.404 846.31 C 849.039 843.564 848.682 842.312 847.686 839.419 C 833.379 797.851 835.596 739.016 856.75 699.749 L 857.371 701.767 C 859.319 700.418 859.722 700.307 861.932 699.381 z"/>
<path transform="translate(0,0)" fill="rgb(7,13,8)" d="M 854.866 845.119 L 851.808 844.65 L 850.833 846.336 L 850.404 846.31 C 849.039 843.564 848.682 842.312 847.686 839.419 C 833.379 797.851 835.596 739.016 856.75 699.749 L 857.371 701.767 C 859.319 700.418 859.722 700.307 861.932 699.381 C 847.137 730.314 841.923 755.378 843.325 789.753 C 844.464 808.67 848.352 827.321 854.866 845.119 z"/>
<path transform="translate(0,0)" fill="rgb(7,13,8)" d="M 1205.27 1367.95 L 1204.08 1368.25 C 1201.67 1365.07 1200.12 1362.67 1198 1359.28 L 1197.88 1359.48 C 1182.68 1329.82 1174.87 1269.08 1203.12 1244.61 C 1243.41 1209.72 1325.02 1212.5 1376.24 1211.52 C 1380.3 1211.44 1400.16 1213.03 1402.08 1214.2 L 1402.01 1215 L 1398.53 1215.27 L 1398.54 1216.09 C 1403.25 1215.89 1406.03 1215.39 1410.46 1217.06 L 1411.35 1219.29 C 1353.06 1214.86 1289.5 1216.09 1233.03 1232.28 C 1182.12 1246.87 1181.6 1312.18 1199.42 1351.96 C 1200.65 1357.65 1205.1 1364.24 1205.27 1367.95 z"/>
<path transform="translate(0,0)" fill="rgb(76,230,71)" d="M 752.889 875.162 C 756.074 886.162 762.563 899.628 766.718 910.91 C 774.041 931.145 780.341 951.736 785.594 972.604 C 793.301 1002.53 800.431 1032.61 806.979 1062.82 C 822.86 1137.46 828.257 1178.47 862.625 1247.85 L 860.546 1248.15 C 857.584 1243.72 856.382 1238.92 853.75 1234.57 C 824.135 1185.52 814.312 1107.53 802.088 1051.09 C 793.874 1013.18 785.243 974.078 773.39 937.18 C 771.681 931.86 769.232 926.883 767.408 921.628 C 763.309 909.823 761.853 898.039 753.275 888.342 C 751.938 886.831 751.989 884.737 751.641 882.764 L 750.855 882.548 C 730.704 902.088 699.149 935.652 682.73 959.649 C 681.283 961.765 682.258 962.84 683.07 965.016 L 681.69 967.935 C 679.963 965.08 677.818 962.584 678.166 959.5 C 696.233 931.601 730.68 900.358 752.889 875.162 z"/>
<path transform="translate(0,0)" fill="rgb(76,230,71)" d="M 1199.42 1351.96 C 1181.6 1312.18 1182.12 1246.87 1233.03 1232.28 C 1289.5 1216.09 1353.06 1214.86 1411.35 1219.29 L 1418.21 1221.12 L 1416.93 1223.03 C 1409.92 1224.24 1401.9 1223.16 1394.91 1221.92 C 1358.29 1215.43 1246.08 1224.13 1216.88 1244.46 C 1204.07 1253.38 1196.49 1266.77 1193.97 1281.99 C 1192.35 1291.76 1191.86 1302.06 1192.71 1311.93 C 1193.5 1321.12 1201.27 1343.12 1200.66 1349.43 C 1200.57 1350.37 1199.83 1351.12 1199.42 1351.96 z"/>
<path transform="translate(0,0)" fill="rgb(76,230,71)" d="M 920.941 929.7 C 921.249 926.047 920.717 924.253 922.655 922.043 C 925.168 925.112 924.605 934.405 924.039 938.436 C 921.444 956.92 914.144 975.465 909.731 993.737 C 902.784 1022.47 897.539 1052.71 894.941 1082.18 C 892.55 1109.29 892.043 1137.11 891.947 1164.32 C 891.915 1173.55 895.401 1201.02 891.356 1206.95 C 880.99 1155.19 892.066 1053.1 904.011 1000.82 C 909.149 978.326 919.386 952.599 920.941 929.7 z"/>
<path transform="translate(0,0)" fill="rgb(76,230,71)" d="M 987.532 1356.61 C 952.672 1304.76 949.711 1252.82 956.538 1192.38 C 957.492 1183.93 959.044 1168.97 961.761 1161.38 C 963.073 1163.21 962.773 1166.74 962.949 1169.49 C 955.338 1236.84 948.284 1295.48 991.34 1354.83 C 990.899 1383.23 990.257 1441.46 996.642 1468.49 C 992.485 1466.69 989.89 1465.59 986.01 1463.32 C 988.761 1461.6 988.339 1462.21 992.249 1462.3 C 992.569 1457.66 991.565 1451.72 990.918 1447.02 C 986.77 1416.81 988.497 1386.97 987.532 1356.61 z"/>
<path transform="translate(0,0)" fill="rgb(76,230,71)" d="M 1125.27 788.392 C 1138.37 797.235 1153.41 806.322 1166.89 814.884 C 1163.83 816.379 1164.01 817.077 1160.56 815.591 C 1152.68 812.194 1139.77 800.379 1132.15 798.135 C 1126.54 800.805 1127.97 817.543 1127.64 823.823 C 1126.79 842.671 1130.15 860.8 1133 879.285 C 1133.31 881.333 1133.54 882.966 1131.31 883.473 C 1106.63 889.103 1082.89 894.535 1060.82 907.829 C 1056.54 910.408 1047.54 919.269 1043.06 917.825 L 1042.44 916.856 C 1064.52 895.811 1101.07 885.397 1130.74 881.741 C 1125.58 862.275 1123.38 842.14 1124.23 822.018 C 1124.65 811.974 1126.2 797.981 1125.27 788.392 z"/>
<path transform="translate(0,0)" fill="rgb(7,13,8)" d="M 983.86 868.277 C 979.342 850.002 991.211 832.013 994.62 813.908 C 995.797 807.652 996.048 796.833 996.502 790.022 L 997.941 791.747 C 1001.8 786.779 995.568 774.273 1000.02 768.745 C 1005.57 766.117 1021.88 768.517 1029.35 768.834 L 1029.81 769.973 L 1028.55 770.868 C 1025.09 770.737 1024.74 770.644 1021.21 771.292 C 1014.4 770.899 1007.61 770.371 1000.82 769.709 C 1004.49 805.708 993.929 834.722 983.86 868.277 z"/>
<path transform="translate(0,0)" fill="rgb(76,230,71)" d="M 1363.92 1395.34 C 1369.09 1391.55 1370.1 1399.75 1376.67 1397.03 C 1377.73 1394 1378.04 1388.24 1377.84 1385.43 C 1376.91 1372.83 1394.28 1309.7 1400.9 1303.63 L 1402.71 1305.75 C 1389 1339.72 1379.83 1371.66 1383.89 1408.51 C 1376.51 1402.94 1371.93 1400.04 1363.92 1395.34 z"/>
<path transform="translate(0,0)" fill="rgb(76,230,71)" d="M 1127.89 1312.9 C 1127.92 1315.61 1128.19 1318.63 1127.41 1321.16 L 1126.54 1320.38 L 1127.23 1317.8 C 1117.56 1310.15 1119.77 1240.02 1127.67 1228.62 L 1130.56 1229.24 C 1121.93 1259.75 1123.14 1281.56 1127.89 1312.9 z"/>
<path transform="translate(0,0)" fill="rgb(76,230,71)" d="M 1071.76 789.762 C 1058.72 783.027 1036.36 773.493 1021.74 774.555 L 1022.73 773.602 L 1021.11 774.04 C 1023.58 772.357 1027.03 772.957 1030.25 773.03 C 1045.75 774.379 1061.78 779.915 1075.11 787.874 C 1073.15 799.506 1071.22 808.427 1068.42 819.88 C 1065.8 815.59 1070.68 795.906 1071.76 789.762 z"/>
<path transform="translate(0,0)" fill="rgb(76,230,71)" d="M 1080.79 1117.28 L 1082.91 1118.67 C 1080.72 1123.74 1070.13 1133.68 1065.97 1138.63 C 1061.2 1144.41 1057.13 1150.74 1053.86 1157.48 C 1053.34 1158.55 1052.76 1159.63 1052.23 1160.7 L 1051.19 1160.92 L 1049.18 1158.27 C 1055.04 1145.5 1070.35 1126.53 1080.79 1117.28 z"/>
<path transform="translate(0,0)" fill="rgb(76,230,71)" d="M 970.639 1136.88 C 969.652 1135.42 970.258 1136.05 968.631 1134.92 L 967.459 1134.12 L 967.655 1133.19 C 968.846 1127.78 972.679 1114.44 977.296 1111.46 L 978.67 1112.68 C 975.995 1120.42 972.791 1129.06 970.639 1136.88 z"/>
<path transform="translate(0,0)" fill="rgb(76,230,71)" d="M 1028.1 1040.37 C 1028.2 1036.92 1027.86 1035.14 1029.09 1032.08 C 1030.41 1044.48 1039.76 1052.17 1035.43 1060.58 C 1031.86 1053.98 1029.4 1047.81 1028.1 1040.37 z"/>
<path transform="translate(0,0)" fill="rgb(76,230,71)" d="M 924.461 1330.16 C 927.424 1332.33 928.38 1333.63 931.739 1334.34 L 933.768 1332.39 L 934.214 1334.49 C 936.043 1334.91 935.239 1334.51 936.641 1335.68 L 935.445 1335.07 L 936.147 1336.67 C 932.635 1339.61 931.892 1339.98 927.797 1338.5 C 926.001 1335.63 924.805 1333.56 924.461 1330.16 z"/>
<path transform="translate(0,0)" fill="rgb(7,13,8)" d="M 845.57 565.236 C 846.333 564.851 847.101 564.479 847.875 564.117 C 861.501 557.801 874.726 559.365 888.228 564.34 C 882.974 564.456 878.009 563.517 873.575 564.502 L 873.595 565.349 C 880.82 567.223 895.167 569.98 900.088 574.61 L 900 576.041 C 895.473 578.081 882.071 568.646 873.934 568.62 C 867.84 568.601 854.647 571.451 851.258 568.912 C 854.731 567.38 856.419 567.031 860.147 566.103 C 855.078 565.657 850.689 565.236 845.57 565.236 z"/>

<!-- Eye group with blinking animation -->
<g class="eye-group">
  <!-- Main eye shape -->
  <path transform="translate(0,0)" fill="rgb(5,10,11)" d="M 1104.48 993.616 C 1113.57 975.248 1124.94 958.614 1145.45 952.9 C 1185.66 941.699 1225.48 967.499 1221.25 1011.47 C 1224.27 1007.38 1223.56 1004.69 1223.57 999.48 C 1225.44 1003.73 1223.26 1015.43 1222.16 1020.41 C 1217.28 1040.4 1204.36 1054.65 1187.11 1065.76 C 1159.54 1083.5 1122.04 1074.22 1103.92 1047.63 C 1096.03 1036.05 1095.86 1009.78 1099.65 996.174 L 1100.28 998.379 C 1101.33 995.178 1101.07 994.57 1103.28 992.365 L 1104.48 993.616 z"/>
  <!-- Eye highlight/reflection -->
  <path transform="translate(0,0)" fill="rgb(76,230,71)" d="M 1221.25 1011.47 C 1224.27 1007.38 1223.56 1004.69 1223.57 999.48 C 1225.44 1003.73 1223.26 1015.43 1222.16 1020.41 C 1217.28 1040.4 1204.36 1054.65 1187.11 1065.76 C 1159.54 1083.5 1122.04 1074.22 1103.92 1047.63 C 1096.03 1036.05 1095.86 1009.78 1099.65 996.174 L 1100.28 998.379 C 1101.33 995.178 1101.07 994.57 1103.28 992.365 L 1104.48 993.616 C 1095.04 1026.52 1103.08 1059.64 1139.98 1069.54 C 1155.3 1073.59 1171.61 1071.18 1185.11 1062.87 C 1201.47 1052.99 1215.59 1036.12 1220.03 1017.29 C 1220.48 1015.36 1220.89 1013.41 1221.25 1011.47 z"/>
  <!-- Pupil with movement animation -->
  <g class="pupil">
    <path transform="translate(0,0)" fill="rgb(7,13,8)" d="M 1213.02 989.594 L 1214.9 990.623 C 1217.87 996.56 1216.98 1001.39 1216.53 1007.95 C 1213.7 1005.07 1213.12 993.899 1213.02 989.594 z"/>
  </g>
  <path transform="translate(0,0)" fill="rgb(7,13,8)" d="M 1122.08 1051.02 L 1125.54 1051.58 C 1129 1054.36 1127.62 1052.65 1129.31 1057.24 C 1126.01 1055.5 1123.63 1054.39 1122.08 1051.02 z"/>
  <!-- Eye shine/highlight -->
  <circle cx="1180" cy="985" r="8" fill="rgba(255,255,255,0.6)"/>
  <circle cx="1195" cy="995" r="4" fill="rgba(255,255,255,0.4)"/>
</g>

<path transform="translate(0,0)" fill="rgb(5,10,11)" d="M 1284.22 1038.38 C 1295.83 1051.99 1353.29 1086.39 1369.86 1097.73 C 1390.4 1111.78 1408.48 1124.29 1427.71 1141.2 C 1432 1145.34 1437.11 1149.66 1440.09 1154.68 L 1439.74 1156.24 C 1436.83 1156.94 1436.69 1156.48 1433.8 1155.33 C 1430.37 1157.07 1402.18 1146.72 1396.64 1144.68 C 1362.69 1132.18 1323.76 1116.94 1287.17 1118.61 C 1276.78 1119.08 1257.64 1126.56 1249.53 1125.02 L 1249.96 1122.9 L 1248.7 1121.41 C 1252.7 1114.95 1259.26 1108.09 1263.74 1101.7 C 1277.36 1082.31 1283.35 1061.81 1284.22 1038.38 z"/>
<path transform="translate(0,0)" fill="rgb(76,230,71)" d="M 1249.96 1122.9 C 1298.67 1105.17 1340.38 1122.66 1387.59 1137.33 C 1395.78 1139.87 1411.68 1147.05 1418.7 1148.83 C 1421.82 1148.71 1423.41 1148.6 1426.49 1148.16 C 1428.53 1145.08 1427.83 1145.73 1427.71 1141.2 C 1432 1145.34 1437.11 1149.66 1440.09 1154.68 L 1439.74 1156.24 C 1436.83 1156.94 1436.69 1156.48 1433.8 1155.33 C 1430.37 1157.07 1402.18 1146.72 1396.64 1144.68 C 1362.69 1132.18 1323.76 1116.94 1287.17 1118.61 C 1276.78 1119.08 1257.64 1126.56 1249.53 1125.02 L 1249.96 1122.9 z"/>
<path transform="translate(0,0)" fill="rgb(7,13,8)" d="M 1427.71 1141.2 C 1432 1145.34 1437.11 1149.66 1440.09 1154.68 L 1439.74 1156.24 C 1436.83 1156.94 1436.69 1156.48 1433.8 1155.33 C 1429.81 1153.29 1423.02 1150.64 1418.7 1148.83 C 1421.82 1148.71 1423.41 1148.6 1426.49 1148.16 C 1428.53 1145.08 1427.83 1145.73 1427.71 1141.2 z"/>
<path transform="translate(0,0)" fill="rgb(7,13,8)" d="M 1277.95 1089.69 C 1278.29 1090.29 1278.63 1090.89 1278.97 1091.49 C 1275.87 1101.86 1267.76 1103.58 1271.24 1113.15 C 1269.66 1112.84 1268.34 1112.4 1266.79 1111.94 C 1265.78 1107.64 1275.02 1094.5 1277.95 1089.69 z"/>
<path transform="translate(0,0)" fill="rgb(75,217,63)" d="M 589.709 1073.74 C 600.46 1088.74 612.418 1103.38 622.436 1118.87 C 632.22 1130.34 687.234 1224.47 690.668 1237 C 694.724 1244.81 698.096 1252.22 701.715 1260.21 C 709.431 1273.53 724.893 1306.49 731.527 1321.44 C 777.664 1409.39 821.297 1470.24 902.989 1529.61 C 919.272 1541.44 934.5 1550.47 950.248 1561.39 C 955.305 1563.82 990.044 1581.79 993.021 1584.35 C 999.829 1587.39 1008.7 1591.79 1015.77 1593.17 C 1017.03 1600.7 1020.4 1618.01 1020.95 1624.81 C 1022.98 1631.38 1026.31 1649.99 1027.98 1657.78 C 1032.17 1677.62 1036.98 1697.33 1042.4 1716.87 C 1029.11 1711.25 1014.6 1706.72 1001.29 1701.06 C 977.173 1690.81 951.776 1679.01 929.03 1666.01 C 866.805 1631.04 811.769 1584.61 766.836 1529.15 C 754.479 1513.65 742.592 1496 731.252 1479.64 C 710.156 1449.14 689.292 1418.47 668.663 1387.65 C 649.99 1360.34 630.821 1335.5 611.238 1309.04 C 582.014 1269.56 554.921 1232.46 522.202 1195.84 L 520.643 1194.25 C 519.92 1183.25 578.773 1090.09 589.709 1073.74 z"/>
<path transform="translate(0,0)" fill="rgb(76,230,71)" d="M 950.248 1561.39 C 949.26 1561.55 947.914 1561.69 946.989 1561.18 C 894.281 1532.11 847.94 1492.27 808.66 1446.81 C 798.74 1435.33 790.601 1422.31 781.463 1410.29 C 762.97 1385.96 747.45 1359.5 733.588 1332.3 C 731.682 1328.56 730.076 1325.51 731.527 1321.44 C 777.664 1409.39 821.297 1470.24 902.989 1529.61 C 919.272 1541.44 934.5 1550.47 950.248 1561.39 z"/>
<path transform="translate(0,0)" fill="rgb(76,230,71)" d="M 589.709 1073.74 C 600.46 1088.74 612.418 1103.38 622.436 1118.87 L 620.491 1119.37 C 621.342 1120.11 611.548 1109.22 611.738 1109.46 C 604.642 1100.47 598.702 1092.66 590.323 1084.74 C 577.003 1089.19 534.097 1174.75 524.9 1191.96 C 524.421 1192.86 524.083 1194.42 523.843 1195.44 L 522.202 1195.84 L 520.643 1194.25 C 519.92 1183.25 578.773 1090.09 589.709 1073.74 z"/>
<path transform="translate(0,0)" fill="rgb(76,230,71)" d="M 993.021 1584.35 C 999.829 1587.39 1008.7 1591.79 1015.77 1593.17 C 1017.03 1600.7 1020.4 1618.01 1020.95 1624.81 L 1020.92 1627.91 C 1018.84 1631.23 1022.41 1629.55 1020.3 1632.24 C 1019.54 1624.08 1013.52 1606.3 1010.05 1598.29 C 1009.08 1596.04 999.933 1594.77 998.126 1591.31 C 1002.96 1590.87 1003.71 1595.06 1009.36 1594.65 C 1007.29 1592.06 997.78 1589.05 992.958 1586.21 L 993.021 1584.35 z"/>
<path transform="translate(0,0)" fill="rgb(76,230,71)" d="M 701.715 1260.21 L 700.822 1261.4 C 695.589 1256.66 687.773 1244.07 690.668 1237 C 694.724 1244.81 698.096 1252.22 701.715 1260.21 z"/>
<path transform="translate(0,0)" fill="rgb(7,13,8)" d="M 1024.76 642.391 C 1027 639.963 1037.35 621.233 1040.24 616.703 C 1049.23 602.612 1060.1 591.257 1071.45 579.052 C 1076.61 573.499 1088.16 564.736 1095.96 564.672 L 1100.55 566.256 L 1100.32 567.408 C 1092.24 570.451 1086.75 568.377 1082.85 576.923 C 1080.58 576.449 1081.35 576.678 1079.29 575.465 C 1066.25 584.367 1046.3 611.127 1038.07 624.536 C 1034.71 630.005 1031.62 636.249 1028.09 641.586 C 1027 643.238 1027.38 642.711 1024.76 642.391 z"/>
<path transform="translate(0,0)" fill="rgb(7,13,8)" d="M 892.948 1017.48 L 894.246 1018.83 C 893.082 1029.19 890.529 1040.23 888.916 1050.75 C 887.475 1060.13 887.346 1071.36 885.179 1080.03 C 881.285 1071.82 889.618 1027.18 892.948 1017.48 z"/>
<path transform="translate(0,0)" fill="rgb(7,13,8)" d="M 996.481 1353.71 C 997.195 1356.86 997.543 1374.97 997.677 1379.24 L 998.063 1369.31 C 999.543 1378.19 998.918 1403.76 999.482 1415.26 C 999.148 1418.48 998.462 1421.55 997.831 1424.72 C 995.557 1417.1 996.22 1363.76 996.481 1353.71 z"/>
<path transform="translate(0,0)" fill="rgb(7,13,8)" d="M 739.547 747.797 C 739.902 748.078 740.527 749.321 740.797 749.791 C 739.324 754.519 724.085 765.296 719.232 769.03 L 718.05 769.781 L 717.305 768.659 C 719.326 765.263 735.246 751.639 739.547 747.797 z"/>
<path transform="translate(0,0)" fill="rgb(7,13,8)" d="M 1204.79 1179.45 C 1210.27 1179.17 1215.02 1178.52 1220.28 1179.91 L 1220.07 1180.86 C 1214.51 1182.58 1209.61 1182.14 1203.75 1182.12 C 1199.66 1182.44 1195.56 1182.64 1191.46 1182.73 L 1190.77 1181.76 C 1189.59 1182.08 1190.08 1182.06 1189.32 1182.03 C 1194.43 1179.97 1199.27 1179.94 1204.79 1179.45 z"/>
<path transform="translate(0,0)" fill="rgb(7,13,8)" d="M 965.596 640.7 C 969.129 643.713 980.566 665.201 980.221 669.947 C 976.558 666.051 967.3 648.836 964.571 643.461 L 965.596 640.7 z"/>
<path transform="translate(0,0)" fill="rgb(7,13,8)" d="M 996.354 1087.81 L 996.698 1088.07 C 997.66 1090.7 985.134 1118.31 983.111 1123.02 C 981.429 1116.35 992.797 1094.41 996.354 1087.81 z"/>
<path transform="translate(0,0)" fill="rgb(7,13,8)" d="M 1137.5 736.572 C 1142.36 738.555 1147.97 740.852 1150.86 745.177 C 1143.11 745.154 1140.2 743.285 1137.5 736.572 z"/>
<path transform="translate(0,0)" fill="rgb(7,13,8)" d="M 1132.74 784.701 C 1137.5 785.683 1142.11 789.681 1145.48 793.051 C 1139.2 791.206 1136.82 789.814 1132.74 784.701 z"/>
<path transform="translate(0,0)" fill="rgb(7,13,8)" d="M 914.249 584.783 C 918.745 586.777 919.348 586.756 919.867 591.314 L 916.396 590.236 C 913.914 587.348 914.794 589.021 914.249 584.783 z"/>
<path transform="translate(0,0)" fill="rgb(7,13,8)" d="M 1449.93 1067.4 C 1454.05 1068.92 1455.97 1070.69 1458.13 1074.29 L 1455.06 1074.33 C 1452.53 1071.64 1451.86 1070.45 1449.93 1067.4 z"/>
<path transform="translate(0,0)" fill="rgb(7,13,8)" d="M 572.184 1084.47 L 574.446 1085.45 C 574.406 1088.41 573.347 1088.34 570.486 1091.22 L 569.709 1091.44 L 569.262 1090.07 L 572.184 1084.47 z"/>
<path transform="translate(0,0)" fill="rgb(76,230,71)" d="M 1125.29 723.163 C 1136.1 725.224 1176.2 746.76 1187.14 752.832 C 1224.85 773.76 1268.25 803.447 1299.78 833.301 C 1356.28 886.796 1402.27 954.579 1458.25 1009.56 C 1475.91 1026.9 1494.87 1042.64 1513.16 1059.63 C 1564.72 1107.46 1616.86 1157.6 1657.45 1215.16 C 1688.04 1258.53 1692.92 1309.36 1683.07 1359.77 C 1663.11 1461.95 1560.98 1539.83 1456.37 1517.48 C 1427.9 1511.4 1402.68 1499.42 1378.48 1483.51 C 1353.15 1466.83 1334.16 1450.56 1303.49 1443.25 C 1272.21 1435.8 1243.37 1441.05 1211.88 1441.81 C 1164.15 1442.97 1127.48 1440.09 1081.53 1427.11 C 1081.66 1433.13 1082.7 1455.45 1081.69 1459.4 C 1080.63 1457.63 1080.08 1456.72 1079.26 1454.84 L 1077.47 1420.37 C 1120.26 1438.72 1182.76 1439.55 1229.15 1437.04 C 1253.92 1435.7 1276.46 1433.13 1301 1438.49 C 1328.55 1444.51 1347.91 1457.51 1370.5 1473.62 C 1414.97 1505.34 1454.41 1520.11 1509.4 1515.96 C 1558.71 1512.24 1601.74 1488.12 1634.04 1450.87 C 1672.34 1406.73 1688.35 1355.5 1683.83 1297.31 C 1681.24 1264.12 1670.5 1237.67 1650.77 1210.71 C 1612.54 1158.45 1563.47 1111.56 1516.09 1067.47 C 1491.04 1044.16 1465.61 1022.53 1441.91 997.827 C 1382.6 935.982 1336.65 866.129 1269.29 812.104 C 1239.46 788.283 1207.42 767.372 1173.6 749.657 C 1166.95 746.127 1126.98 728.01 1124.51 725.917 L 1125.29 723.163 z"/>
</g>
</g>
</g>
</svg>
